<svg version="1.1" id="nb-svg" xmlns="http://www.w3.org/2000/svg" xmlns:xlink="http://www.w3.org/1999/xlink" x="0px" y="0px"
	 viewBox="0 0 500 300" style="enable-background:new 0 0 500 300;" xml:space="preserve">
<g id="Layer_1">
</g>
<g id="fuzen" class="st0">
	<g class="st1">
		<path class="st2" d="M307.5,151.4c-0.1,0,6.1,2.7,7.7,5.6c0.6,1.1,1.2,2.1,1.8,3.2c0.2,0.4,0.5,0.9,0.8,1.3H348
			c-13.5-29.5-40-51.5-72.1-59.4c0.1,0.2,0.2,0.3,0.3,0.4c0.1,1,1.4,2,1.6,3c0.1,0.7,0.3,1.5,0.4,2.3c0.2,0.5,0.8,1,1.2,1.4
			c0.4,0.4,2.1,0.5,2.8,0.8c0.9,0.4,1.8,0.9,2.6,1.6c0.6,0.5,0.8,1.5,1.4,2c0.8,0.6,2.5,2.6,2.8,3.9c0,0,0.1,0.3,0.1,0.3
			c0,0,0.1,0.1,0,0.1c0.2,0.3,0.4,0.8,0.5,0.9c0.1,0.1,0.1,0.2,0.1,0.4c0-0.1,0.1,0.2,0.1,0.3c0-0.1-0.1-0.2-0.1-0.3
			c0.2,0.7,0.4,1.4,0.5,2c0-0.1-0.1-0.3-0.1-0.4c0,0.2,0.1,0.3,0.1,0.5c0,0,0-0.1,0-0.1c0.1,0.4,0.3,1.6,0.3,1.5
			c-0.1,0.7,0.2,1.6,0.2,2.3c0.1,1.6-0.2,3.1-1.2,4.3c-1.2,1.4-3,2.3-4.8,2.4c-1.5,0.1-2.4-0.4-3.8-0.8c0.3,1.7,1.1,1.5,2.5,2
			c1.7,0.7,4.1,1,4.9,3c0.3,0.6,0.2,1.1,0.9,1.3c0.7,0.2,1.4,0.5,2.2,0.7c0.7,0.2,1.6,0.4,2.2,0.9c0.6,0.4,0.8,1.2,1.1,1.8
			c0.9,1.4,1.6,2.5,2.9,3.5c1.1,0.8,2.1,1.7,3.1,2.6C302.9,148.3,305,150.5,307.5,151.4 M224.2,83c-0.4-0.7-0.8-1.3-1.1-2
			c-0.4-0.8-0.3-1.8-0.4-2.7c-0.2-2.6-0.6-5.4-0.6-7.8c-0.2-1.4-0.2-3-0.2-4.5c-44.4,8.9-81.3,38.3-100.6,77.9H82.9V116h31.9
			c4.1-6.1,8.6-12,13.4-17.5H82.9V70.6h77.5c10.8-7.2,22.5-13.1,34.9-17.5l-129.9,0v0v45.4H20V116h45.4v45.4h66.9
			C147.4,121.8,181.9,91.8,224.2,83 M226.3,106.7c-0.2-0.4-0.4-0.9-0.5-1.3c-0.4-1.1-1.1-2.3-1.1-3.5c-32.4,7.8-59.1,29.9-72.7,59.6
			h41.2c5.4-6.9,12.1-12.7,19.7-17.2c0.2-0.2,0.4-0.4,0.3-0.8c-0.2-1.3-0.2-2.5-0.2-3.7c0-0.1-0.9-1.2-1.1-1.3
			c-0.4-0.1-1.1-0.6-1.1-0.6c-1.2-1.2-2.6-1.9-3.6-3.3c-1.4-2-1.1-3.8-1.1-6.1c0,0.2,0.1-5.7,0.3-8.8c0,0.2,0.2-2.6,1.1-3.6
			c0.9-1.1,1.7-2.3,2.9-3.1c3.3-2.2,11.9-4.6,11.9-4.6c0.6-0.1,1.1-0.3,1.7-0.4c0.4-0.1,0.9-0.2,1.3-0.2
			C226.1,107.4,226.8,107.7,226.3,106.7 M259.4,87.8c0-0.1-0.1-0.2-0.2-0.2c-0.2-0.3-0.3-0.6-0.5-0.8c0-0.1-0.1-0.2-0.2-0.3
			c-0.2-0.3-0.5-0.6-0.7-0.9c-1-1.2-2.2-2.2-3.4-3.2c-0.4-0.3-0.9-0.6-1.3-0.9c-0.4-0.2-0.7-0.4-1-0.6c-0.1-0.1-0.3-0.1-0.3-0.2
			c0.9-2.7,1.8-5.5,2.7-8.3c0.4-0.5,0.7-1,1-1.5c0.1-0.2,0.2-0.3,0.3-0.5c0.1-0.1,0.2-0.2,0.3-0.3c0.2-0.2,0.4-0.4,0.6-0.7
			c0.4-0.7,0.5-1.9,0.3-2.8c-0.3-0.3-0.6-0.6-0.9-0.9c-0.1-0.1-0.3-0.3-0.5-0.4c-0.2-0.1-0.3-0.3-0.5-0.4c-0.5-0.4-1-0.8-1.5-1.2
			c-0.2-0.1-0.4-0.3-0.5-0.4c0,0-0.1,0-0.1,0c-0.1-0.1-0.1-0.1-0.2-0.1c-0.6-0.3-1.1-0.7-1.7-1c-0.1-0.1-0.2-0.1-0.3-0.1
			c-0.1,0-0.2-0.1-0.3-0.2c-0.1,0-0.1,0-0.2,0c-0.1,0-0.1-0.1-0.2-0.1c0,0-0.1,0-0.1,0c-0.1,0-0.1-0.1-0.2-0.1
			c-0.1,0-0.1-0.1-0.2-0.1c-0.1,0-0.1,0-0.2,0c0,0-0.1-0.1-0.1-0.1c0,0-0.1,0-0.1,0c0,0,0-0.1-0.1-0.1c-0.1,0-0.1,0-0.2,0
			c-0.1,0-0.1-0.1-0.1-0.1c-0.1,0-0.1,0-0.2,0c-0.1,0-0.2-0.1-0.3-0.1c-0.1,0-0.2-0.1-0.4-0.1c-0.2-0.1-0.5-0.2-0.7-0.2
			c-0.1,0-0.3-0.1-0.4-0.1c-0.1,0-0.2,0-0.2,0c-0.1,0-0.1-0.1-0.2-0.1c-0.1,0-0.3,0-0.4-0.1c-0.2,0-0.3,0-0.4-0.1
			c-0.1,0-0.2-0.1-0.3-0.1c-0.1,0-0.3,0-0.4,0c-0.1,0-0.3-0.1-0.4-0.1c-0.2,0-0.3,0-0.5,0c-0.3,0-0.6-0.1-0.8-0.1
			c-0.6,0-1.2,0-1.9,0c-0.5-0.7-1-1.3-1.5-2c-0.2-0.2-0.3-0.5-0.5-0.7c-0.5-0.7-1.2-1.6-1.7-2.3c-0.1-0.1-0.2-0.3-0.2-0.4
			c0-0.1,0-0.2,0-0.3c0-0.1-0.1-0.2-0.1-0.3c0-0.2,0-0.4,0-0.6c0-0.2-0.1-0.4-0.1-0.6c0-0.3,0-0.5-0.1-0.7c0-0.1,0-0.2,0-0.4
			c0-0.3-0.1-0.5-0.1-0.7c0-0.2,0-0.5-0.1-0.7c0-0.3,0-0.5-0.1-0.8c0-0.1-0.1-0.3-0.1-0.4c0-0.3,0-0.6-0.1-0.8c0-0.1,0-0.3,0-0.4
			c0-0.2-0.1-0.3-0.1-0.5c0-0.4,0-0.7,0-1.1c0-0.4,0.1-0.7,0.1-1c0-0.4,0.1-0.8,0.1-1.3c0-0.1,0.1-0.3,0.1-0.4c0-0.1,0-0.3,0-0.4
			c0-0.1,0.1-0.3,0.1-0.4c0-0.1,0-0.2,0-0.3c0-0.1,0.1-0.2,0.1-0.3c0-0.2,0-0.5,0-0.7c0-0.1-0.1-0.1-0.1-0.2c0-0.1,0-0.3,0-0.4
			c0-0.1-0.1-0.2-0.1-0.2c0-0.2-0.1-0.3-0.1-0.5c-0.1-0.3-0.2-0.7-0.4-0.9c-0.1-0.3-0.3-0.5-0.4-0.7c-0.1-0.1-0.1-0.1-0.1-0.2
			c0,0,0-0.1,0-0.1c-0.1-0.2-0.3-0.5-0.4-0.7c-0.1-0.1-0.1-0.2-0.2-0.3c-0.2-0.3-0.4-0.5-0.6-0.7c-0.1-0.1-0.2-0.3-0.3-0.3
			c-0.1,0-0.2,0-0.3,0c-0.1,0-0.2,0-0.3,0c-0.4,0-0.7,0-1.1-0.1c-0.2,0-0.5-0.1-0.7-0.1c-0.3,0-0.5,0-0.8,0c-0.2,0-0.4-0.1-0.7-0.1
			c-0.6-0.1-1.5-0.1-2.1-0.1c-0.1,0.1-0.1,0.3-0.1,0.4c0,0.1,0,0.3-0.1,0.4c0,0.3,0,0.6,0,1c0,0.7,0,1.4,0,2c0,0.2,0.1,0.3,0.1,0.4
			c0,0.2,0,0.3,0,0.5c0,0.1,0.1,0.2,0.1,0.3c0,0.1,0,0.3,0,0.4c0,0.1,0.1,0.2,0.1,0.3c0,0.1,0,0.3,0,0.4c0,0.1,0.1,0.2,0.1,0.2
			c0,0.1,0,0.2,0,0.3c0,0.1,0.1,0.2,0.1,0.3c0,0.1,0,0.1,0,0.2c0,0.1,0.1,0.2,0.1,0.3c0,0.1,0,0.2,0,0.2c0,0.2,0.1,0.3,0.1,0.4
			c0.1,0.1,0.1,0.3,0.1,0.4c0,0.1,0.1,0.1,0.1,0.1c0,0.1,0,0.2,0,0.2c0,0.1,0.1,0.1,0.1,0.2c0,0.1,0,0.2,0,0.2
			c0,0.1,0.1,0.3,0.1,0.4c0.1,0.3,0.2,0.5,0.3,0.8c0.1,0.2,0.2,0.4,0.2,0.6c0,0,0,0,0.1,0.1c0,0,0,0.1,0,0.1
			c0.1,0.1,0.1,0.2,0.2,0.4c0,0,0,0.1,0,0.1c0.1,0.1,0.1,0.2,0.1,0.3c0.1,0.2,0,0.6-0.1,0.8c0,0.2,0,0.4,0,0.6
			c0,0.2-0.1,0.3-0.1,0.5c0,0.1,0,0.2,0,0.3c0,0.1,0,0.2-0.1,0.3c0,0.2,0,0.4,0,0.6c0,0.1-0.1,0.2-0.1,0.3c0,0.2,0,0.4-0.1,0.6
			c0,0.1,0,0.2,0,0.3c0,0.2-0.1,0.4-0.1,0.6c0,0.1,0,0.3,0,0.4c0,0.1-0.1,0.3-0.1,0.4c0,0.1,0,0.3,0,0.4c0,0.1-0.1,0.2-0.1,0.3
			c0,0.2,0,0.3,0,0.4c0,0.1-0.1,0.3-0.1,0.4c0,0.1,0,0.3,0,0.3c0,0.1-0.1,0.3-0.1,0.4c0,0.1,0,0.3,0,0.4c0,0.1-0.1,0.2-0.1,0.4
			c0,0.1,0,0.3,0,0.4c0,0.1-0.1,0.1-0.1,0.2c-0.1,0.2,0,0.4-0.1,0.7c0,0.1-0.1,0.2-0.1,0.3c0,0.2,0,0.4,0,0.6c0,0.2-0.1,0.3-0.1,0.5
			c0,0.5,0,1,0,1.4c0,0.1-0.1,0.2-0.1,0.3c0,0.4,0,0.9,0,1.4c0,0.4,0,0.7,0,1c0,0.1,0,0.2,0,0.3c0,0.4-0.1,0.9,0,1.3
			c0,0.1,0.1,0.2,0.1,0.3c0,0.3,0,0.5,0,0.8c0,0.3,0,0.5,0,0.8c0,0.5,0.1,0.9,0.1,1.3c0,0.4,0,0.9,0,1.3c0,0.2,0.1,0.4,0.1,0.7
			c0,0.5,0,1,0.1,1.5c0.1,0.3,0.1,0.8,0.1,1.1c0,0.1,0,0.2,0,0.3c0,0.3,0,0.7,0.1,1.1c0,0.2,0.1,0.3,0.1,0.5c0,0.3,0,0.7,0.1,1
			c0,0.2,0.1,0.3,0.1,0.5c0,0.2,0,0.4,0,0.5c0,0.2,0.1,0.4,0.1,0.7c0,0.2,0,0.5,0,0.7c0,0.2,0.1,0.5,0.1,0.7c0,0.2,0.1,0.4,0.1,0.6
			c0,0.2,0,0.5,0.1,0.8c0,0.1,0.1,0.2,0.1,0.4c0,0.3,0,0.4,0.2,0.6c0,0,0.1,0.1,0.2,0.1c0.1,0.1,0.2,0.2,0.3,0.3
			c0.2,0.2,0.4,0.4,0.6,0.5c0.4,0.4,0.8,0.8,1.2,1.1c0.4,0.4,0.8,0.8,1.2,1.1c0,0,0,0.1,0.1,0.1c0.4,0.3,0.7,0.6,1,1
			c0,0.1,0.1,0.2,0.1,0.3c0.1,0.3,0,0.8,0,1.1c0,0.1-0.1,0.2-0.1,0.3c0,0.1,0,0.3,0,0.4c0,0.1-0.1,0.2-0.1,0.3c0,0.1,0,0.2,0,0.3
			c0,0.1-0.1,0.1-0.1,0.2c0,0.1,0,0.2,0,0.3c0,0.1-0.1,0.1-0.1,0.2c0,0.1,0,0.2,0,0.3c0,0.1-0.1,0.2-0.1,0.3c0,0,0,0.1,0,0.1
			c-0.1,0.2-0.2,0.5-0.2,0.7c-0.1,0.1-0.2,0.4-0.2,0.5c0,0,0,0.1,0,0.1c0,0.1-0.1,0.1-0.1,0.2c0,0.1,0,0.2,0,0.2c0,0-0.1,0-0.1,0.1
			c0,0,0,0.1,0,0.1c-0.1,0.1-0.1,0.3-0.1,0.4c0,0.1-0.1,0.1-0.1,0.2c0,0.1,0,0.2,0,0.2c0,0.1-0.1,0.1-0.1,0.2c0,0,0,0.1,0,0.1
			c0,0,0,0.1,0,0.1c0,0.1,0,0.1,0,0.2c0,0.1-0.1,0.1-0.1,0.2c0,0.1,0,0.2,0,0.2c0,0.1-0.1,0.1-0.1,0.2c0,0.1,0,0.1,0,0.2
			c0,0.1-0.1,0.2-0.1,0.4c-0.1,0.4-0.2,0.8-0.3,1.1c0,0.2-0.1,0.3-0.1,0.4c0,0.1,0,0.2,0,0.3c0,0.1-0.1,0.1-0.1,0.2
			c0,0.2,0,0.4-0.1,0.5c0,0.2-0.1,0.4-0.1,0.5c0,0.2,0,0.3-0.1,0.5c0,0.2,0,0.3-0.1,0.5c0,0.1-0.1,0.2-0.1,0.4c0,0.2,0,0.3,0,0.5
			c0,0.1-0.1,0.3-0.1,0.4c0,0.3,0,0.5,0,0.8c0,0.1,0,0.2,0,0.4c0,0.1-0.1,0.2-0.1,0.3c0,0.1,0.1,0.2,0.1,0.3c0,0.2,0,0.4,0,0.6
			c0,0,0,0.1,0.1,0.1c0,0,0,0.1,0,0.1c0.1,0.2,0.1,0.3,0.2,0.5c0,0,0,0.1,0,0.1c0,0,0.1,0.1,0.1,0.1c0,0,0,0.1,0,0.1
			c0.1,0.1,0.2,0.3,0.2,0.5c0.1,0.1,0.1,0.2,0.2,0.4c0.2,0.5,0.4,1,0.6,1.4c0.1,0.2,0.2,0.5,0.3,0.7c0,0,0.1,0,0.1,0.1
			c0.1,0.1,0.1,0.2,0.1,0.3c0.1,0.1,0.1,0.2,0.2,0.4c0,0,0.1,0,0.1,0.1c0,0,0,0.1,0,0.1c0,0,0,0,0.1,0.1c0,0,0,0.1,0,0.1
			c0.1,0.1,0.1,0.2,0.2,0.3c0.2,0.5,0.5,0.9,0.7,1.4c0.1,0.1,0.1,0.2,0.2,0.3c0,0,0.1,0,0.1,0.1c0.1,0.1,0.1,0.2,0.1,0.3
			c0,0.1,0,0.3,0,0.4c0,0.7,0,1.5,0.1,2.2c0,0.4,0.1,1.2-0.1,1.4c-0.1,0.2-0.5,0.5-0.8,0.6c-0.1,0-0.2,0.1-0.3,0.1
			c-0.1,0-0.1,0.1-0.2,0.1c-0.1,0-0.2,0-0.3,0c-0.1,0-0.2,0-0.3,0c-0.7,0-1.4,0.1-2,0.1c-0.1,0-0.1,0.1-0.2,0.1
			c-0.3,0-0.6,0-0.9,0.1c-0.3,0-0.6,0-0.9,0.1c-0.2,0-0.3,0.1-0.5,0.1c-0.6,0.1-1.3,0.2-1.9,0.3c-0.1,0-0.2,0.1-0.3,0.1
			c-0.1,0-0.2,0-0.2,0c-0.1,0-0.2,0.1-0.3,0.1c-0.1,0-0.2,0-0.3,0c-0.1,0-0.2,0.1-0.2,0.1c-0.1,0-0.2,0-0.3,0
			c-0.1,0-0.2,0.1-0.3,0.1c-0.4,0.1-0.8,0.2-1.1,0.2c-0.3,0.1-0.6,0.2-0.9,0.2c-0.1,0.1-0.3,0.1-0.5,0.1c-0.2,0.1-0.4,0.2-0.7,0.2
			c-0.2,0.1-0.4,0.1-0.6,0.2c-0.6,0.2-1.1,0.4-1.7,0.6c-2,0.8-4,1.6-5.6,2.7c-0.1,0.1-0.3,0.2-0.3,0.3c-0.1,0.2,0,0.5,0,0.7
			c0,0.3,0,0.6,0,0.9c0,0.1-0.1,0.2-0.1,0.3c0,0.2,0,0.4,0,0.6c0,0.5-0.1,1-0.1,1.4c0,0.5,0,1,0,1.5c0,0.3,0,0.6,0,0.9
			c-0.1,1,0,2.1-0.1,3.1c0,0.2,0,0.5,0,0.7c-0.1,0.4-0.1,1.2,0,1.5c0.2,0.3,0.4,0.5,0.6,0.8c0.1,0.1,0.1,0.2,0.2,0.3
			c0.1,0.2,0.3,0.2,0.5,0.3c0,0,0.1,0,0.1,0c0.1,0,0.1,0.1,0.2,0.1c0.1,0,0.2,0,0.2,0c0,0,0,0.1,0.1,0.1c0,0,0.1,0,0.1,0
			c0.5,0.2,1.1,0.4,1.6,0.6c0.1,0,0.2,0.1,0.3,0.1c0.1,0.1,0.3,0.1,0.3,0.1c0.1,0.1,0.1,0.3,0.1,0.5c0,0.1,0.1,0.2,0.1,0.2
			c0,0.1,0,0.2,0,0.3c0,0.2,0.2,0.3,0.1,0.5c0.5,0.4,1.1,0.7,1.6,1.1c0,0.2,0.1,0.3,0.1,0.5c0.2,0.5,0.4,1,0.6,1.5
			c0,0,0,0.1,0.1,0.1c0,0.1,0,0.1,0,0.2c0,0.1,0.1,0.2,0.1,0.3c0,0.2-0.1,0.5-0.1,0.8c0,0.3,0,0.6,0,0.9c0,0.3-0.1,0.6,0,0.9
			c0.1,0.9,0.1,1.7,0.4,2.5c0.6,0.5,1.1,1.2,1.6,1.9c0.4,0.5,0.7,1,1,1.6c0.1,0.2,0.3,0.4,0.3,0.6c0,0.2,0,0.4-0.1,0.6
			c-0.1,0.1-0.1,0.2-0.1,0.3c-0.1,0.1-0.2,0.2-0.3,0.3c-0.2,0.1-0.3,0.3-0.5,0.3c-0.1,0-0.2,0-0.4,0c-0.3,0-0.5,0-0.8,0
			c-0.1,0-0.2,0-0.4,0c-0.3,0-0.5,0-0.8,0c-0.2,0-0.5,0.1-0.7,0.1s-0.5,0.1-0.7,0.2c-0.2,0.1-0.4,0.1-0.6,0.2
			c-0.6,0.3-1.1,0.5-1.5,1c-0.1,0.1-0.4,0.3-0.4,0.5c0,0.1,0.2,0.3,0.2,0.3c0.1,0.1,0.1,0.2,0.1,0.2c0.3,0.4,0.6,0.6,1,0.8
			c0.2,0.1,0.4,0.2,0.6,0.3c0.1,0.1,0.3,0.2,0.4,0.2c0.1,0,0.2,0,0.3,0c0.1,0,0.2,0.1,0.2,0.1c0.1,0,0.2,0,0.3,0
			c0.1,0,0.1,0,0.2,0.1c0.2,0,0.3,0,0.5,0c0.2,0,0.4,0.1,0.6,0.1c0.2,0,0.4,0,0.7,0c0.4,0,0.9,0,1.4,0c0.1,0,0.2-0.1,0.2-0.1
			c0.2,0,0.4,0,0.6,0c0.1,0,0.2-0.1,0.4-0.1c0.2,0,0.3,0,0.5,0c0.9-0.1,1.9-0.1,3,0c0.8,0.1,1.7,0,2.5,0.1c0.2,0,0.4,0.1,0.6,0.1
			c0.3,0,0.5,0,0.7,0c0.1,0,0.1,0.1,0.2,0.1c0.1,0,0.1,0,0.2,0c0.2,0,0.4,0,0.7,0c0.3,0,0.6,0.1,0.8,0.1c0.3,0,0.6,0,0.9,0
			c0.1,0,0.3,0,0.4,0.1c0.1,0,0.3,0,0.4,0c0.3,0,0.5,0.1,0.8,0.1c0.3,0,0.6,0,0.9,0.1c0.5,0.1,1.2,0.1,1.7-0.1
			c0.6-0.2,1-0.6,1.2-1.2c0-0.4,0.1-0.7,0.1-1c0-0.1,0-0.1,0-0.1c0-0.1,0-0.1,0-0.2c0-0.1-0.1-0.1-0.1-0.2c0-0.1,0-0.3,0-0.4
			c0-0.1-0.1-0.1-0.1-0.2c0-0.1,0-0.2,0-0.3c0-0.1-0.1-0.1-0.1-0.2c0-0.1,0-0.1,0-0.2c0-0.1-0.1-0.2-0.1-0.3c0-0.1,0-0.1,0-0.1
			c0-0.1-0.1-0.2-0.1-0.3c0,0,0-0.1-0.1-0.1c-0.1-0.1-0.1-0.3-0.1-0.4c0,0-0.1-0.1-0.1-0.1c0,0,0-0.1,0-0.2c0-0.1-0.1-0.2-0.1-0.3
			c0,0,0-0.1-0.1-0.1c-0.1-0.2-0.1-0.4-0.1-0.7c0-0.4-0.1-0.6,0-1c0.1-0.7,0-1.6,0.1-2.2c0-0.1,0-0.2,0-0.3c0-0.1,0-0.2,0-0.3
			c0-0.1,0-0.2-0.1-0.3c0-0.1,0-0.2,0-0.3c0-0.1-0.1-0.1-0.1-0.2c0-0.1,0-0.1,0-0.2c0-0.1-0.1-0.3-0.2-0.4c0-0.1,0-0.2-0.1-0.3
			c0,0-0.1-0.1-0.1-0.1c-0.1-0.2-0.2-0.5-0.3-0.7c-0.1-0.2-0.2-0.3-0.2-0.5c-0.2-0.5-0.5-0.9-0.7-1.3c0,0,0-0.1,0-0.1
			c0,0-0.1-0.1-0.1-0.1c0,0,0-0.1,0-0.1c-0.1-0.1-0.1-0.2-0.2-0.3c0,0-0.1-0.1-0.1-0.1c0,0,0-0.1,0-0.1c-0.3-0.4-0.5-0.9-0.8-1.3
			c-0.2-0.3-0.4-0.7-0.7-1c-0.1-0.2-0.4-0.5-0.4-0.6c0-0.2,0-0.5,0-0.8c0-0.4,0-0.8,0-1.3c0-0.4,0-0.9,0.1-1.2c0.9,0,1.8,0,2.7,0
			c0.3,0,0.6,0,0.9,0c0.9,0,1.8,0,2.7,0c0.3,0,0.7-0.1,0.9,0c0.1,0,0.3,0.2,0.5,0.3c0.2,0.1,0.3,0.2,0.5,0.3
			c0.3,0.2,0.7,0.4,0.9,0.6c0.7,0.4,1.3,0.8,1.9,1.2c2.1,1.4,4.2,2.7,6.3,4c0,0,0.1,0,0.1,0.1c0,0,0.1,0.1,0.1,0.1
			c0.1,0,0.2,0.1,0.3,0.1c0,0,0,0.1,0.1,0.1c0,0,0.1,0,0.2,0c0,0,0,0,0,0c0.2,0.2,0.4,0.3,0.6,0.4c0.5,0.3,1,0.6,1.4,0.9
			c0.1,0.1,0.2,0.1,0.3,0.1c0.2,0.1,0.4,0.3,0.6,0.4c0.1,0.1,0.2,0.2,0.3,0.2c0.3,0.2,0.7,0.3,0.9,0.6c0.4,0.2,0.7,0.4,1.1,0.7
			c0.4,0.2,0.7,0.4,1.1,0.7c0.2,0.5,0.3,1,0.4,1.6c0.1,0.1,0.1,0.1,0.3,0.2c0.1,0.1,0.3,0.2,0.4,0.2c0.4,0.2,0.7,0.4,1.1,0.6
			c0.2,0.1,0.4,0.2,0.6,0.3c0.4,0.2,0.9,0.5,1.4,0.8c0.1,0.1,0.2,0.1,0.3,0.2c0.2,0.1,0.5,0.2,0.6,0.3c0.1,0.1,0.1,0.4,0.2,0.5
			c0,0,0,0.1,0.1,0.1c0,0.1,0.1,0.2,0.1,0.3c0,0.1,0.1,0.2,0.1,0.3c0,0,0,0.1,0,0.1c0.1,0.3,0.2,0.5,0.3,0.8
			c0.2,0.1,0.4,0.2,0.6,0.3c0.4,0.2,0.8,0.3,1.1,0.6c0.1,0,0.2,0.1,0.3,0.1c0,0,0.1,0,0.1,0c0.1,0,0.1,0.2,0.2,0.1
			c0.4,0.2,0.8,0.3,1.1,0.6c0.4,0.1,0.8,0.4,1.2,0.5c0.1,0.1,0.3,0.3,0.5,0.4c0,0,0.1,0,0.1,0.1c0,0,0,0.1,0,0.1
			c0.1,0.1,0.2,0.2,0.3,0.2c0.1,0.1,0.1,0.1,0.2,0.2c0,0,0.1,0.1,0.1,0.1c0.6,0.4,1.3,0.9,1.8,1.4c0.1,0.1,0.2,0.2,0.4,0.2
			c0.1,0,0.2,0,0.3,0c0.1,0,0.2,0.1,0.3,0.1c0.1,0,0.2,0,0.3,0c0.1,0,0.1,0.1,0.2,0.1c0.1,0,0.2,0,0.3,0c0.1,0,0.2,0.1,0.3,0.1
			c0.3,0.1,0.6,0.1,0.9,0.1c0.1,0,0.2,0.1,0.3,0.1c0.1,0,0.2,0,0.3,0c0.1,0,0.2,0.1,0.3,0.1c0.1,0,0.2,0,0.3,0
			c0.1,0,0.2,0.1,0.2,0.1c0.1,0,0.2,0,0.3,0c0.1,0,0.2,0.1,0.3,0.1c0.2,0,0.4,0,0.5,0.1c0.3,0.1,0.7,0.1,1,0.2
			c0.1,0,0.2,0.1,0.2,0.1c0.1,0,0.2,0,0.3,0c0.2,0,0.3,0.2,0.6,0.1c0.5,0.4,1.1,0.9,1.6,1.4c0.5,0.5,1,1,1.6,1.4
			c0.5,0.5,1,0.9,1.6,1.4c0.5,0.5,1.1,0.9,1.6,1.4c0.4,0.3,0.9,0.8,1.3,1.1c0.3,0.3,0.6,0.5,0.9,0.8c0,0,0.1,0.1,0.2,0.2
			c0.1,0,0.1,0.1,0.2,0.1c0,0,0,0.1,0.1,0.1c0,0,0.1,0,0.1,0.1c0.2,0.2,0.1,0.3,0.1,0.6c0,0.5,0,1.1-0.1,1.7
			c0.7,0.9,1.4,1.8,2.1,2.8c0.4,0.8,1,1.4,1.8,1.8c0.2,0.2,0.6,0.2,0.9,0.4c0.6,0.1,1.1,0.3,1.8,0.2c1.7-0.8,3.4-1.7,5.1-2.5
			c0.3-0.2,0.7-0.3,1-0.5c0.1-0.1,0.2-0.1,0.3-0.1c0,0,0-0.1,0-0.1c0,0,0.1,0,0.1,0c0.2-0.1,0.3-0.2,0.5-0.2
			c0.6-0.3,1.3-0.6,1.9-0.9c0.2-0.1,0.4-0.2,0.6-0.3c0.1-0.1,0.1-0.1,0.2-0.1c0.1,0,0.1,0,0.2-0.1c0.1-0.1,0.2-0.1,0.3-0.2
			c0.4-0.1,0.7-0.4,1.1-0.5c0.1-0.1,0.3-0.2,0.5-0.3c0.2-0.1,0.3-0.2,0.5-0.3c0.3-0.1,0.5-0.2,0.8-0.4c0.3-0.1,0.7-0.3,1-0.5
			c0,0,0.1,0,0.1,0c0.4-0.2,0.9-0.4,1.3-0.6c0.3-0.2,0.8-0.3,1-0.5c0-0.1-0.1-0.2-0.2-0.2c-0.1-0.1-0.1-0.2-0.2-0.3
			c-0.3-0.3-0.6-0.6-0.9-0.9c-0.4-0.5-0.8-0.9-1.3-1.4c-0.3-0.3-0.6-0.7-0.9-0.9c-0.1-0.1-0.2-0.1-0.3-0.2c-0.6-0.2-1.2-0.4-1.8-0.6
			c0,0-0.1,0-0.2,0c-0.3-0.1-0.6-0.2-0.8-0.3c-0.2-0.1-0.4-0.1-0.6-0.2c-0.1,0-0.2-0.1-0.3-0.1c0,0-0.1,0-0.1,0
			c-0.1,0-0.1-0.1-0.1-0.1c-0.1,0-0.2,0-0.3-0.1c-0.1,0-0.2-0.1-0.3-0.1c-0.3-0.2-0.6-0.4-0.8-0.7c-0.7-0.6-1.5-1.2-2.2-1.8
			c-0.5-0.4-1-0.8-1.5-1.2c-1.4-1.2-2.9-2.4-4.3-3.6c-0.4-0.3-0.8-0.6-1.1-0.9c-0.6-0.5-1.2-1-1.8-1.5c-0.7-1.2-1.5-2.4-2.2-3.6
			c-0.1-0.1-0.3-0.1-0.5-0.1c-0.1,0-0.2-0.1-0.3-0.1c-0.1,0-0.2,0-0.3,0c-0.1,0-0.2-0.1-0.3-0.1c-0.2,0-0.4,0-0.5-0.1
			c-0.1,0-0.1,0-0.2,0c-0.1,0-0.3-0.1-0.4-0.1c-0.1,0-0.2,0-0.3,0c-0.1,0-0.2-0.1-0.2-0.1c-0.1,0-0.3,0-0.4-0.1
			c-0.3-0.1-0.5-0.1-0.7-0.1c-0.1,0-0.2,0-0.3,0c-0.1,0-0.2-0.1-0.3-0.1c-0.3-0.1-0.6-0.1-0.9-0.1c-0.1-0.1-0.1-0.3-0.1-0.5
			c0-0.1-0.1-0.2-0.1-0.2c0-0.1,0-0.2,0-0.3c0-0.1-0.1-0.1-0.1-0.2c0-0.1,0-0.2,0-0.2c0-0.1-0.1-0.1-0.1-0.2c0-0.1,0-0.2,0-0.2
			c0-0.1-0.1-0.2-0.1-0.3c0-0.1,0-0.2-0.1-0.3c-0.1-0.3-0.1-0.5-0.2-0.8c-0.2-0.1-0.4-0.1-0.7-0.2c-0.1,0-0.1-0.1-0.2-0.1
			c-0.1,0-0.2,0-0.3,0c-0.1,0-0.2-0.1-0.3-0.1c-0.1,0-0.1,0-0.2,0c-0.1,0-0.2-0.1-0.3-0.1c-0.2,0-0.3-0.1-0.4-0.1
			c-0.2-0.1-0.4-0.1-0.6-0.1c-0.1,0-0.3-0.1-0.4-0.1c-0.1,0-0.2,0-0.2,0c-0.1,0-0.1-0.1-0.2-0.1c-0.4-0.1-0.7-0.1-1.1-0.3
			c0-0.2-0.1-0.4-0.1-0.5c0-0.1,0-0.2,0-0.2c0-0.1-0.1-0.1-0.1-0.2c0-0.1,0-0.2,0-0.3c0-0.1-0.1-0.1-0.1-0.2c0-0.1,0-0.2,0-0.3
			c-0.1-0.2-0.3-0.2-0.5-0.3c0,0-0.1-0.1-0.1-0.1c-0.2-0.1-0.3-0.1-0.4-0.2c-0.4-0.2-0.8-0.4-1.2-0.6c-0.2-0.9-0.3-1.9-0.5-2.8
			c-0.2-0.1-0.6-0.1-0.8-0.3c-0.3,0-0.5-0.1-0.8-0.2c-0.1,0-0.1,0-0.2,0c-0.3-0.1-0.5-0.1-0.8-0.2c-0.1,0-0.1-0.1-0.2-0.1
			c-0.1,0-0.2,0-0.2,0c-0.1,0-0.1-0.1-0.2-0.1c-0.2-0.1-0.4-0.1-0.6-0.1c-0.1,0-0.1-0.1-0.2-0.1c-0.1,0-0.2,0-0.2,0
			c-0.1,0-0.2-0.1-0.4-0.1c-0.1-0.2-0.2-0.4-0.3-0.5c-0.3-0.5-0.6-1.1-0.9-1.6c-1-0.5-1.9-0.9-2.9-1.4c0-0.5,0-0.9-0.1-1.3
			c-0.1-0.8,0-1.6-0.1-2.3c0-0.1,0-0.1,0-0.2c0-0.3,0-0.6,0-0.9c0-0.1-0.1-0.2-0.1-0.3c0-0.1-0.1-0.2-0.1-0.3
			c-0.2-0.5-0.5-1.1-0.7-1.6c-0.1-0.1-0.3-0.1-0.5-0.1c-0.1,0-0.2-0.1-0.2-0.1c-0.1,0-0.2,0-0.3,0c-0.1,0-0.2-0.1-0.3-0.1
			c-0.1,0-0.2,0-0.3-0.1c0,0-0.1-0.1-0.1-0.1c-0.1,0-0.1,0-0.2,0c-0.1,0-0.2-0.1-0.3-0.1c-0.1,0-0.3,0-0.4,0c0,0-0.1-0.1-0.2-0.2
			c-0.1-0.1-0.1-0.1-0.2-0.2c-0.4-0.4-0.9-0.8-1.2-1.1c-0.6-0.6-1.2-1.2-1.8-1.7c-0.5-0.4-1-0.9-1.4-1.3c-0.5-0.5-0.9-1.2-1.2-1.9
			c-0.1-0.2-0.1-0.3-0.2-0.5c0-0.1,0-0.1,0-0.2c-0.1-0.3-0.2-0.5-0.2-0.9c-0.1-0.2-0.1-0.4-0.1-0.6c0-0.1-0.1-0.2-0.1-0.3
			c-0.1-0.6,0-1.1,0.3-1.3c0.1,0,0.4,0,0.5,0c0.3,0.1,0.5,0.3,0.8,0.5c0.2,0.2,0.4,0.4,0.7,0.6c0.4,0.4,0.8,0.9,1.3,1.3
			c1.7,1.7,3.3,3.4,5,5.1c0.4,0.4,0.8,0.8,1.2,1.3c0.2,0.2,0.4,0.4,0.6,0.6c0.2,0.2,0.5,0.6,0.7,0.6c0.1,0,0.3,0,0.4,0
			c0.8,0.1,1.9,0,2.7,0.1c0.1,0,0.3,0.1,0.4,0.1c0.5,0.1,1.1,0,1.6,0c0.2-0.6,0.3-1.4,0.6-2.1c0.6-0.1,1.2,0,1.7,0.1
			c0.2,0.1,0.4,0.2,0.6,0.2c0.2,0.1,0.3,0.1,0.4,0.1c0.6,0.2,1.2,0.5,1.7,0.8c0.1,0.1,0.2,0.1,0.3,0.2c-0.5,0-1.1,0.1-1.7,0.1
			c-0.1,0-0.2-0.1-0.3,0.1c0,0.2,0.1,0.3,0.2,0.4c0.1,0.2,0.1,0.3,0.3,0.4c1.3,0.3,2.7,0.6,4,0.9c1.4,1.1,2.8,2.2,4.2,3.2
			c0.1,0.1,0.2,0.2,0.3,0.2c0-0.4-0.1-0.9-0.2-1.4c0-0.2,0-0.5-0.1-0.7c0-0.1,0-0.1,0-0.1c0-0.1,0-0.1,0-0.2c0-0.4-0.1-0.5-0.2-0.8
			c-0.1-0.1-0.2-0.3-0.2-0.4c-0.1-0.2-0.2-0.5-0.4-0.8c0-0.2-0.2-0.4-0.2-0.5c0,0,0-0.1,0-0.1c0-0.1-0.1-0.1-0.1-0.2
			c-0.1-0.3-0.3-0.5-0.4-0.8c-0.1-0.2-0.3-0.3-0.5-0.4c-0.4-0.3-0.7-0.6-1.1-0.9c-0.3-0.6-0.6-1.1-1-1.7c-0.2,0-0.4-0.1-0.5-0.1
			c-0.3-0.1-0.5-0.1-0.8-0.1c-0.1,0-0.2-0.1-0.2-0.1c-0.1,0-0.2,0-0.3,0c-0.1,0-0.2-0.1-0.3-0.1c-0.1,0-0.1,0-0.2,0
			c-0.1,0-0.3-0.1-0.5-0.1c-0.3-0.1-0.7-0.2-1-0.2c-0.5-0.6-1.1-1.2-1.7-1.8c-0.6-0.5-1.2-1.1-1.8-1.7c-0.2-0.7-0.5-1.5-0.7-2.2
			c-0.1-0.3-0.1-0.5-0.2-0.8c0-0.2,0-0.3-0.1-0.4c0-0.1-0.1-0.2-0.1-0.3c0-0.1,0-0.2,0-0.3c0-0.1-0.1-0.2-0.1-0.3c0-0.1,0-0.3,0-0.4
			c0-0.2-0.2-0.3-0.3-0.4c-0.1-0.1-0.1-0.2-0.2-0.3c-0.5-0.7-1.1-1.4-1.5-2c-0.2-0.2-0.4-0.4-0.6-0.6c-0.2-0.1-0.3-0.3-0.5-0.4
			c-0.1,0-0.1-0.1-0.2-0.1c0,0-0.1-0.1-0.1-0.1c-0.4-0.3-0.8-0.6-1.1-1c-0.3-0.6-0.6-1.2-0.9-1.7c-0.1-0.3-0.2-0.5-0.4-0.7
			c-0.1-0.2-0.2-0.3-0.3-0.4c-0.2-0.1-0.5-0.2-0.7-0.3c-0.5-0.2-1.1-0.4-1.6-0.6c-0.2-0.8-0.3-1.6-0.5-2.4v0c-0.2-0.3-0.4-0.6-0.6-1
			c-0.2-0.3-0.4-0.7-0.6-1c-0.2-0.3-0.4-0.7-0.6-1c-0.1-0.3-0.4-0.6-0.5-0.8c0,0,0,0,0-0.1c-0.1-0.2,0-0.4-0.1-0.6
			c0-0.1-0.1-0.2-0.1-0.3c0-0.1,0-0.3,0-0.4c0-0.2-0.2-0.4-0.1-0.6c-0.1-0.1-0.1-0.2-0.1-0.4c-0.1-0.2-0.2-0.5-0.3-0.8
			c-0.1-0.3-0.2-0.6-0.4-0.8c0,0-0.1-0.1-0.1-0.1C259.4,87.9,259.5,87.8,259.4,87.8 M480,116V98.5h-45.4V53.1v0l-129.9,0
			c12.4,4.4,24.1,10.3,34.9,17.5h77.5v27.9h-45.3c4.9,5.5,9.3,11.4,13.4,17.5h31.9V144h-38.4c-21.5-44.2-65-75.6-116.3-80.1
			c1.2,2.6,1,6.1-0.4,8.6c-1,1.6-2,2.6-2.6,4.3c-0.4,1.4,0.2,1.7,1.2,2.6c0.5,0.5,1,1,1.4,1.6c48.5,4.6,88.9,36.7,105.6,80.5h66.8
			V116H480z"/>
		<path class="st2" d="M385.3,218.3c-1.3-0.7-2-1.5-2-2.5v-15.3l20,26.9h25.9v-33.9c0-1.3,0.5-2.4,1.6-3.4c1-1,2.3-1.4,3.8-1.4v-8.1
			h-27.5v8.1c1.7,0,3,0.4,4.1,1.3c1.1,0.9,1.6,2,1.6,3.4v13.8l-20.1-26.6h-32.9v8.1c1.7,0,3,0.4,4.2,1.3c1.1,0.9,1.7,2,1.7,3.4v22.2
			c0,1-0.7,1.8-2,2.6c-1.3,0.8-2.5,1.1-3.7,1.1v8h28.7v-8.2C387.6,219.2,386.5,218.9,385.3,218.3 M284,227.4h69.5v-19.7h-18.4v5.1
			c0,1.4-0.6,2.8-1.8,4.1c-1.2,1.3-2.6,1.9-4.1,1.9h-14.6c-0.5,0-1-0.3-1.5-0.9c-0.5-0.6-0.7-1.2-0.7-1.8v-8l0.9-1.2h2.5
			c0.6,0,1.4,0.3,2.2,0.9c0.6,0.4,1,0.7,1,0.8c0.6,1.1,0.9,2,1.1,2.7h8.7v-15.8h-9.2c0.1,0.6,0,1.3-0.4,2.1c-0.4,1-0.9,1.5-1.5,1.5
			H314c-0.4,0-0.8-0.1-1.2-0.4c-0.5-0.2-0.8-0.4-0.8-0.7v-5.6c0-0.6,0-0.9,0.1-1.1c0.3-1.2,1-1.8,2-1.8h15.1c1.6,0,2.9,0.7,4.1,2
			c1.2,1.3,1.8,2.6,1.8,4v5.9h18.4v-20.9h-69.6v8.1c1.5,0,2.9,0.5,4.1,1.4c1.2,0.9,1.8,2,1.8,3.4v21.1c0,1.4-0.6,2.5-1.7,3.4
			c-1.1,0.9-2.5,1.3-4.1,1.3L284,227.4z M244.6,217.4c0-0.3,0.2-0.6,0.6-0.9l32.6-29.1v-6.7h-64.8v19.2h15.5l0.4-5.3
			c0.1-1.9,1.3-3.3,3.3-4.3c1.7-0.8,3.7-1.2,6-1.2c3.1,0,4.6,0.2,4.7,0.7c0.4,0,0.6,0.3,0.6,0.8c0,0.3-0.3,0.8-0.8,1.2l-30.7,27.5
			v8.1h66.4V206h-16.1l-0.7,5.2c-0.6,5.1-4.6,7.6-11.9,7.6c-2.6,0-4-0.1-4.3-0.4C244.9,218.4,244.6,218.1,244.6,217.4 M167.5,190.1
			c1.4-0.7,2.9-1.1,4.4-1.1v-8.3h-35.1v8.6c1.2,0,2.4,0.4,3.7,1.3c1.2,0.9,1.9,1.8,1.9,2.9v17.9c0,4.4,2.7,8.2,8.1,11.3
			c6,3.5,14.1,5.2,24.3,5.2c13.4,0,22.2-3.7,26.4-11c1.2-2.1,1.8-4.1,1.8-5.9v-17.5c0-1.2,0.6-2.2,1.7-3c1.1-0.8,2.5-1.2,4-1.2v-8.6
			h-30.8v8.5c0.1,0,0.4-0.1,0.8-0.1c1.5,0,2.9,0.4,4.2,1.1c1.5,0.9,2.2,2,2.2,3.3v17.7c0,2.3-1.1,4.1-3.4,5.5
			c-2,1.2-4.3,1.8-7.1,1.8c-2.7,0-4.9-0.7-6.8-2.2c-1.8-1.5-2.8-3.4-2.8-5.7v-17C165,192.1,165.9,191,167.5,190.1 M95,206.9h2.6
			c1.3,0.2,2.5,0.9,3.4,2c0.2,1.3,0.4,2.3,0.4,3.1h9v-16.4h-9.2c0,0.7-0.1,1.4-0.4,2.1c-0.3,1-0.8,1.5-1.4,1.5h-3.8
			c-0.4,0-0.8-0.1-1.2-0.4c-0.5-0.2-0.8-0.4-0.8-0.7v-5.8c0-1.8,0.7-2.7,2.1-2.7h13.3c1.4,0,2.8,0.7,4.3,2.1
			c1.5,1.4,2.3,2.7,2.3,3.9v4.2h17.7v-19.3h-68v8.5c1.6,0,3,0.4,4.2,1.3c1.2,0.9,1.8,2,1.8,3.4v20.7c0,1.4-0.6,2.5-1.7,3.4
			c-1.1,0.9-2.5,1.4-4.1,1.4v8h35v-8c-2,0-4-1-5.9-2.9c-0.5-0.5-0.7-1-0.7-1.7v-6.7L95,206.9z"/>
		<path class="st2" d="M416.2,244.7v-4.9h5.6v22h-3.6v2.6h11v-2.6h-3.6v-22h5.6v4.9h3.4v-7.5h-21.8v7.5H416.2z M384,261.8h-3.3v2.6
			h10.4v-2.6h-3.6v-18.7h0.1l13.1,21.3h3.3v-24.6h3.2v-2.6h-10.1v2.6h3.3v17.3h-0.1l-12.1-19.9h-7.4v2.6h3.2V261.8z M375.1,264.4
			v-8.1h-3.4v5.5H360v-10.4h9.8v-2.9H360v-8.7h11.6v4.7h3.4v-7.3h-22.3v2.6h3.4v22h-3.4v2.6H375.1z M321.4,241.1L321.4,241.1
			l8.5,20.9h2l8.4-20.9h0.1v20.7h-3.5v2.6h10.5v-2.6H344v-22h3.4v-2.6h-8.8l-7.5,18.6H331l-7.4-18.6h-9.3v2.6h3.4v22h-3.4v2.6H325
			v-2.6h-3.6V241.1z M285.6,261.8h-3.3v2.6h10.4v-2.6h-3.6v-18.7h0.1l13.1,21.3h3.3v-24.6h3.2v-2.6h-10.2v2.6h3.3v17.3H302
			l-12.1-19.9h-7.4v2.6h3.2V261.8z M276.8,264.4v-2.6h-3.5v-22h3.6v-2.6h-10.7v2.6h3.4v22h-3.5v2.6H276.8z M251.1,252.5H243l4-11.6
			h0.1L251.1,252.5z M240.8,239.8h3.5l-8.1,22h-2.8v2.6h9.7v-2.6h-3.5l2.4-6.7h10l2.3,6.7h-3.5v2.6h10v-2.6h-2.7l-7.8-22h3.5v-2.6
			h-13.1V239.8z M212.6,244.7v-4.9h5.6v22h-3.6v2.6h11v-2.6H222v-22h5.6v4.9h3.4v-7.5h-21.8v7.5H212.6z M187.8,239.8h4.2
			c3.1,0,6.8,0.5,6.8,4.1c0,3.8-3.2,4.9-6.8,4.9h-4.2V239.8z M191.2,264.4v-2.6h-3.4v-10.4h4.8c2.6,0,5.1,0.4,5.1,3.2v9.8h7.1v-2.6
			h-3.4v-7.5c0-2.3-1.5-4-3.8-4v-0.1c3.1-1.3,4.9-2.8,4.9-6.2c0-4.1-2.9-6.7-8-6.8h-13.9v2.6h3.4v22h-3.4v2.6H191.2z M174.9,264.4
			v-8.1h-3.4v5.5h-11.6v-10.4h9.8v-2.9h-9.8v-8.7h11.6v4.7h3.4v-7.3h-22.3v2.6h3.4v22h-3.4v2.6H174.9z M128.8,244.7v-4.9h5.6v22
			h-3.6v2.6h11v-2.6h-3.6v-22h5.6v4.9h3.4v-7.5h-21.8v7.5H128.8z M96.6,261.8h-3.3v2.6h10.4v-2.6h-3.6v-18.7h0.1l13.1,21.3h3.3
			v-24.6h3.2v-2.6h-10.1v2.6h3.3v17.3H113l-12.1-19.9h-7.4v2.6h3.2V261.8z M87.7,264.4v-8.1h-3.4v5.5H72.7v-10.4h9.8v-2.9h-9.8v-8.7
			h11.6v4.7h3.4v-7.3H65.4v2.6h3.4v22h-3.4v2.6H87.7z"/>
	</g>
</g>
<g id="3ba">
	<g>
		<g>
			<path class="st0" d="M233.9,23.1c2.4,0.4,4.6,1.2,6.6,2.4c2,1.1,3.6,2.7,5,4.4c1.8,2.7,3.8,4.7,5.9,6.7c2.2,2,4.5,3.9,7,5.5
				c2.5,1.6,5.1,3.1,7.7,4.4c1.3,0.7,2.7,1.3,4,1.9c1.2,0.5,2.4,1.1,3.6,1.7c4.9,2.4,9.6,5.3,14.2,8.3c4.6,3,9,6.3,13.1,9.9
				c2.1,1.8,4.1,3.6,6.1,5.5c2,1.9,3.9,3.9,5.7,5.9c1.8,2.1,3.6,4.2,5.2,6.3c1.7,2.2,3.2,4.4,4.7,6.7c1.5,2.3,2.9,4.7,4.2,7.1
				c1.2,2.5,2.5,5,3.5,7.5c0.6,1.3,1.1,2.6,1.5,3.9c0.5,1.3,1,2.6,1.4,4c0.9,2.7,1.6,5.4,2.3,8.2c-0.1-2.8-0.1-5.7-0.6-8.6
				c-0.3-2.9-0.9-5.7-1.6-8.5c-1.4-5.6-3.5-11.1-6.1-16.3c-1.3-2.6-2.8-5.1-4.4-7.6l-2.4-3.6l-2.6-3.5c-1.8-2.3-3.7-4.5-5.7-6.6
				c-2-2.1-4.1-4.2-6.3-6.1c-4.4-3.9-9-7.5-13.8-10.7c-4.9-3.2-9.9-6.1-15.2-8.6c-1.3-0.6-2.7-1.2-4.1-1.8c-1.2-0.5-2.5-1-3.7-1.5
				c-2.5-1.1-4.9-2.3-7.2-3.7c-2.3-1.4-4.6-2.8-6.7-4.5c-2.1-1.6-4.2-3.5-5.6-5.3l-0.2-0.3c-2.1-2-4.5-3.8-7.2-4.8
				c-2.6-1.1-5.5-1.6-8.2-1.6c-5.5-0.1-10.7,1.4-15.3,3.9C223.9,22.6,229.1,22.3,233.9,23.1z"/>
		</g>
		<g>
			<path class="st0" d="M265.7,64c0.1,0.1-37.9-9.8-51-38.7c0,0-3.5,9.8-26.2,5.2c0,0-6.5,6.1-1.9,15.8c0,0,6.9,16.1,45.5,26.6
				c0,0,27.1,6.3,16.1,39.7c3.4-38.9-25.2-34.1-25.2-34.1c-3.5,0.4-6.7,1.1-9.8,2c-0.3,0.1-0.6,0.1-1,0.3c-0.3,0.1-0.6,0.2-0.9,0.3
				c-0.5,0.2-0.9,0.3-1.4,0.5c-5.8,2-10.1,3.2-13.3,4c6.4-4.6,13-7.1,13-7.1s-2.9-0.1-8.6,2.2c-4.9,2-11.1,4.8-12.7,5.6
				c2-1.6,4-3.2,6-4.5c3.9-2.7,7.8-4.7,11.4-5.9c1.8-0.5,3.5-0.9,5-1.1c1.5-0.1,2.9-0.2,4-0.1c1.1,0.1,2,0.2,2.6,0.4
				c0.6,0.1,0.9,0.2,0.9,0.2s-0.3-0.2-0.8-0.5c-0.5-0.3-1.4-0.8-2.5-1.2c-1.1-0.4-2.5-0.8-4.2-1c-1.7-0.2-3.6-0.2-5.7,0.1
				c-4.2,0.5-8.9,2.2-13.4,4.7c-4.5,2.5-8.9,5.8-12.9,9.5c-2,1.8-3.9,3.7-5.7,5.8c-1.6,1.8-3.4,3.5-5.1,5.1c-1.7,1.6-3.5,2.9-5.3,4
				c-1.7,1.1-3.5,1.8-5.2,2.3c-3.1,0.8-5.8,0.1-7.8-0.8c-1.1-0.7-2.3-1.5-3.5-2.3l0,0v0l0,0c0,0-1.3,21.6,26.2,16.2
				c-7.3,13.7-10,25.7-10,25.7s-11.9,43.1-1.9,48.8l19.7,0c0,0,2-4.6-3.5-11.4c0,0,1.7-10.9,10.5-22.1c15,0.6,23.6-1.5,23.6-1.5
				c1.7,17.2,9.5,26,9.5,26c3.3,5.9,8.9,5.9,8.9,5.9h11.9c-7.4-6.3-11.9-20.6-11.9-20.6s-7.1-21.6-2.1-40.8c0,0-4,59.1,43.8,76.2
				h20.8c0,0-0.6-10.5-11.3-14.6c0,0-15.8-22.9-12.2-40.3c0,0,23.3-3.1,30.9-8.8c0,0,12.5,15.5,8.1,45c0,0-4.9,4.4-4.4,10.2
				l21.4-0.2C368.8,89.2,265.7,64,265.7,64z M214.6,43.5c-1.3,0-2.4-1.4-2.4-3c0-0.7,0.2-1.4,0.6-1.9l4.3,1.9c0,0,0,0,0,0
				C217,42.2,215.9,43.5,214.6,43.5z"/>
		</g>
	</g>
	<g>
		<path class="st1" d="M172.4,234.8h3.7c4.1,0,7.3-1.4,7.3-5.4c0-2.9-1.9-5-5.1-5c-3.5,0-5.6,2.8-6.1,5.9H151
			c1.4-13.2,11.4-24.6,28.4-24.6c15.6,0,25.5,9.3,25.5,23.1c0,5.4-3.3,11.3-6.9,13.9c4.8,2.4,7.6,7.8,7.6,14.2
			c0,13.2-10.3,22.7-26.6,22.7c-17.4,0-27.9-10-28.8-25.1h22.6c0.2,3.6,2.1,6.2,5.8,6.2c3,0,5.4-2.1,5.4-5.2c0-3.8-3-5.4-7.2-5.4
			h-4.4V234.8z"/>
		<path class="st1" d="M271.2,258.6c0,12.7-8.6,19.8-23.5,19.8h-36v-71.6h34c14.9,0,23.5,6.6,23.5,19.5c0,7.7-4.4,13.3-9.7,15.2
			C266.3,243.7,271.2,250.4,271.2,258.6z M242.4,234.3c3.7,0,5.8-1.6,5.8-4.7s-2.1-4.5-5.8-4.5h-9.4v9.2H242.4z M232.9,260.2h11
			c3.6,0,5.7-2,5.7-4.8c0-3-2.1-4.9-5.7-4.9h-11V260.2z"/>
		<path class="st1" d="M321.9,206.9l27,71.6h-22.8l-3.7-10.4h-25.2l-3.7,10.4h-22.1l27-71.6H321.9z M303.8,249.8h11.9l-5.9-16.4
			L303.8,249.8z"/>
	</g>
</g>
<g id="g2" class="st0">
	<g class="st1">
		<g>
			<g>
				<path d="M237.8,117.9c0-7.9-3-10.9-10.9-10.9h-32c-7.9,0-10.9,3-10.9,10.9v64.2c0,7.9,3,10.9,10.9,10.9h32c3.9,0,7.8,0.1,10.9,0
					c0-2.4,0-7,0-10.9v-22.5l-28.3,14.5v-10.8l39.2-20.5v39c0,7.2,0,15,0,21.2c-7.7,0-14,0-21.2,0h-33.2c-14.4,0-21.2-6.8-21.2-21.2
					v-63.6c0-14.4,6.8-21.2,21.2-21.2h33.2c14.4,0,21.2,6.8,21.2,21.2v13.6l-10.9,5.4V117.9z M248.7,181.8c0,7.2,0,12.9,0,21.2
					c-7.7,0-14,0-21.2,0"/>
			</g>
			<g>
				<path d="M257.3,203v-27.1c0-11.2,7.1-14.2,21.8-21.8l25.1-12.9c6.8-3.5,10.9-5.6,10.9-10.3v-13c0-7.9-3-10.9-10.9-10.9h-25.1
					c-7.9,0-10.9,3-10.9,10.9v4.3l-10.9,5.4v-9.3c0-14.4,6.8-21.2,21.2-21.2h26.4c14.4,0,21.2,6.8,21.2,21.2v12.7
					c0,11.2-7.1,14.2-21.8,21.8l-25.1,12.9c-6.5,3.3-10.9,5.6-10.9,10.3V193h48.5v-35l10.3-5.3V203H257.3z"/>
			</g>
		</g>
		<g>
			<path d="M250,280c-34.7,0-67.4-13.5-91.9-38.1C133.5,217.4,120,184.7,120,150s13.5-67.4,38.1-91.9C182.6,33.5,215.3,20,250,20
				c34.7,0,67.4,13.5,91.9,38.1C366.5,82.6,380,115.3,380,150s-13.5,67.4-38.1,91.9C317.4,266.5,284.7,280,250,280z M250,30.1
				c-66.1,0-119.9,53.8-119.9,119.9S183.9,269.9,250,269.9S369.9,216.1,369.9,150S316.1,30.1,250,30.1z"/>
		</g>
	</g>
</g>
<g id="hands" class="st0">
	<g class="st1">
		<g>
			<path class="st8" d="M318.5,167.8c3-6.6,8.3-12.9,12.4-19.4c4.1-6.6,8.2-13.1,12-19.8c7.5-13.5,16.7-27.6,19.4-44.2
				c1.5-9.4-0.8-17.7-8.3-18.6c-8.4-1-15.8,7-19.8,11.6c-12.1,13.5-21.8,32.2-31,49.5c-2.5,4.6-6.6,17-12,15.3c-3-0.9-1.9-10-1.7-12
				c0.4-4.4,1.8-9.4,2.5-12c5.6-22.6,13.3-50.3,13.2-73.5c0-12.8-3-25.1-14.9-24.8c-11.4,0.3-16.5,14.9-20.2,24.4
				c-4.4,11.1-6.4,21.2-8.7,31.8c-3.6,16.7-6.5,34.1-6.6,54.1c0,8.7,0.6,16-3.7,16.5c-7.9,0.9-10.2-19.1-10.7-25.2
				c-2.3-25,0.1-46.7-2.5-69.4c-1.4-12-6.6-27.8-21.1-21.5c-19.6,8.5-12.7,49.9-9.1,72.7c2.5,16,6.8,31.5,7.8,45.4
				c0.5,6.7-0.1,15.5-4.5,16.1c-5,0.7-9.4-8-11.6-12.8c-2.8-6.3-3.7-12.8-5.4-19.4c-2.5-9.9-8.2-30.8-19-30.5
				c-6.2,0.1-9.4,8.2-9.9,14.9c-0.7,8.4,2.4,17.3,5,22.7c7.5,15.7,20.8,29.2,16.9,52c5.5-6.5,2.9-19.3,0.4-28.1
				c-3.5-12.3-9.1-22.1-13.2-33.9c-1.4-3.9-4.9-17.9,2.1-17.8c4.8,0.1,7.5,11.9,9.1,16.9c2,6.3,4.5,14.1,6.2,19.8
				c4.1,13.6,7.9,27.2,24.4,27.7c8.4-4.4,8.7-17.5,8.7-27.7c0-13.5-1.5-28.1-3.3-41.7c-1.8-13.8-5.5-26.7-7-38
				c-1.1-8.6-1.9-29.7,5.8-29.7c5.8,0,10.8,15.2,11.6,22.7c2.3,22.6-3.1,45.7-1.7,66.9c1,14,6.3,34.5,18.2,34.3
				c8.6-0.2,15.3-15.9,17.3-25.6c2.4-11.6,2.6-27.4,3.3-40c0.8-13.5,2.1-26.5,4.5-38.8c1.5-7.5,5.8-29.7,14-29.3
				c5.1,0.2,7.5,9,7.8,14.4c1.2,22.1-5.8,39.3-10.7,60.7c-2,8.9-3.5,19.4-4.1,31.4c-0.5,10.5,0.2,25.7,9.1,26
				c7.7,0.2,14.2-11.1,18.2-17.8c11.3-19.1,19.2-41.5,32.2-57.4c2.5-3,5.7-7.4,10.3-7c3.5,3.6,0.8,8.5-0.4,12
				c-4.4,12.3-9,22.8-14.9,33.4c-7.9,14.2-18.2,25.2-23.9,40c-2.9,7.5-5.3,25.2,4.1,26.4c4.7,0.6,10.5-4.1,13.2-6.6
				c4.1-3.8,10.1-11.9,13.2-16.5c2.1-3.1,9.7-16.4,15.3-14.9c6.3,1.7-0.2,18.6-1.2,21.5c-7.6,21.6-18.7,37.5-36.7,47.5
				c-5.2,2.9-12.7,6.3-20.2,5.4c-8.9-1.1-17-15-24.4-21.1c-7.4-6-15.4-11.7-26-12.8c-13.7-1.4-23,5.8-31.8,9.1
				c-10.3,3.8-22.9,7.3-37.6,6.2c-36.5-2.7-44.4-32.9-68.1-49.1c0.8,4.1-1.1,7.6,0,11.1c0.5,1.5,3.8,4.2,5,5.8
				c1.7,2.2,3.5,4.7,4.5,6.2c16.5,23.5,43.4,44,83,35.1c7.7-1.7,14.8-6.3,23.5-7.8c18.6-3.3,31,2.6,41.7,9.9
				c7.1,4.9,13.1,11.8,19.4,15.7c8.1,5,18.6,4.4,27.2-0.4c12-6.6,27-21.1,35.9-33.4c8.3-11.4,13.2-21.9,16.5-35.5
				c2.2-9.1,4.5-27.1-6.2-28.1c-5.8-0.5-10,4.5-13.2,8.3c-7.4,8.6-11.8,16.9-18.2,25.2c-3,3.9-6,9.4-12.4,9.5
				C314.3,177.2,316.7,171.6,318.5,167.8z M133.1,214.4c12.1,15.8,30.4,26.8,55.3,26.8c15.8,0,29.1-8.5,45.8-5
				c6.2,1.3,11.6,5.8,16.9,9.5c15.2,10.4,31.4,23.6,55.7,23.5c17.1-0.1,29.6-8.3,42.5-14.9c9.9-5,19.3-9.5,30.1-13.2
				c3.2-1.1,7.4-1.6,9.9-4.5c-13.5-1.9-24.7,2.5-35.1,6.6c-10.3,4-19.5,10.7-29.7,14c-22.6,7.4-46.4-4.3-59.4-13.2
				c-11.1-7.5-21.3-16-35.5-17.3c-10.8-1-18.3,3-26.8,4.5c-30.5,5.6-50.9-4.5-68.9-18.2c-0.4,0-0.8,0-1.2,0
				C132.8,213.7,132.7,214.4,133.1,214.4z M162.9,248.7c7.4,6.2,20.7,10.3,32.6,11.1c8.9,0.6,15.5-1.5,24.4-0.8
				c13.9,1.1,21.2,8.1,30.5,12.8c6.6,3.3,14.9,6.9,22.7,7.8c5.9,0.7,12.8,0,19,0c6.3,0,14.1,1.5,17.3-2.1c-20.4-2-38.2-2.6-52.8-9.1
				c-12.1-5.4-17.5-15.9-33.4-16.9c-21.9-1.5-44,3.1-60.7-4.1C162.5,248,162.4,248.6,162.9,248.7z"/>
			<path class="st8" d="M317.7,181.8c6.4-0.1,9.4-5.6,12.4-9.5c6.3-8.3,10.8-16.6,18.2-25.2c3.2-3.7,7.4-8.8,13.2-8.3
				c10.7,0.9,8.4,19,6.2,28.1c-3.3,13.6-8.3,24.1-16.5,35.5c-8.9,12.3-23.9,26.8-35.9,33.4c-8.7,4.8-19.1,5.4-27.2,0.4
				c-6.3-3.8-12.3-10.8-19.4-15.7c-10.7-7.3-23.1-13.3-41.7-9.9c-8.7,1.6-15.8,6.1-23.5,7.8c-39.6,8.9-66.5-11.6-83-35.1
				c-1-1.5-2.9-4-4.5-6.2c-1.2-1.5-4.5-4.3-5-5.8c-1.1-3.5,0.8-7,0-11.1c23.7,16.2,31.6,46.5,68.1,49.1c14.7,1.1,27.2-2.4,37.6-6.2
				c8.8-3.2,18.1-10.5,31.8-9.1c10.6,1.1,18.6,6.8,26,12.8c7.4,6,15.4,19.9,24.4,21.1c7.6,1,15-2.5,20.2-5.4
				c18.1-9.9,29.2-25.8,36.7-47.5c1-2.9,7.5-19.8,1.2-21.5c-5.6-1.5-13.2,11.8-15.3,14.9c-3.1,4.6-9.1,12.7-13.2,16.5
				c-2.7,2.5-8.5,7.2-13.2,6.6c-9.4-1.2-7-18.9-4.1-26.4c5.7-14.9,16.1-25.8,23.9-40c5.9-10.7,10.5-21.2,14.9-33.4
				c1.2-3.5,3.9-8.4,0.4-12c-4.6-0.3-7.9,4-10.3,7c-13,15.9-20.9,38.3-32.2,57.4c-3.9,6.7-10.5,18-18.2,17.8
				c-8.9-0.3-9.6-15.5-9.1-26c0.6-12,2.1-22.4,4.1-31.4c4.9-21.4,12-38.6,10.7-60.7c-0.3-5.4-2.7-14.2-7.8-14.4
				c-8.2-0.4-12.5,21.8-14,29.3c-2.5,12.3-3.8,25.3-4.5,38.8c-0.7,12.6-0.9,28.5-3.3,40c-2,9.7-8.7,25.4-17.3,25.6
				c-11.9,0.3-17.2-20.3-18.2-34.3c-1.4-21.1,4-44.3,1.7-66.9c-0.8-7.5-5.8-22.7-11.6-22.7c-7.7,0-6.9,21.1-5.8,29.7
				c1.5,11.3,5.2,24.2,7,38c1.8,13.6,3.3,28.2,3.3,41.7c0,10.1-0.3,23.3-8.7,27.7c-16.5-0.5-20.3-14.1-24.4-27.7
				c-1.7-5.7-4.2-13.5-6.2-19.8c-1.6-5-4.3-16.8-9.1-16.9c-7-0.1-3.4,13.8-2.1,17.8c4.1,11.8,9.7,21.6,13.2,33.9
				c2.5,8.8,5.1,21.5-0.4,28.1c3.9-22.8-9.4-36.3-16.9-52c-2.6-5.4-5.6-14.3-5-22.7c0.5-6.6,3.7-14.7,9.9-14.9
				c10.8-0.2,16.5,20.7,19,30.5c1.7,6.6,2.5,13.2,5.4,19.4c2.2,4.8,6.6,13.5,11.6,12.8c4.4-0.6,5-9.4,4.5-16.1
				c-1-13.9-5.3-29.5-7.8-45.4c-3.6-22.8-10.5-64.1,9.1-72.7c14.4-6.3,19.7,9.5,21.1,21.5c2.6,22.7,0.2,44.4,2.5,69.4
				c0.6,6.1,2.8,26.1,10.7,25.2c4.3-0.5,3.7-7.8,3.7-16.5c0.1-20,3-37.4,6.6-54.1c2.3-10.5,4.3-20.7,8.7-31.8
				c3.7-9.4,8.8-24,20.2-24.4c11.8-0.3,14.8,12,14.9,24.8c0.1,23.2-7.6,50.8-13.2,73.5c-0.6,2.6-2,7.6-2.5,12c-0.2,2-1.3,11,1.7,12
				c5.4,1.7,9.5-10.6,12-15.3c9.2-17.3,18.9-36,31-49.5c4.1-4.5,11.4-12.6,19.8-11.6c7.4,0.9,9.8,9.1,8.3,18.6
				c-2.7,16.6-11.9,30.7-19.4,44.2c-3.7,6.7-7.9,13.2-12,19.8c-4,6.5-9.3,12.8-12.4,19.4C316.7,171.6,314.3,177.2,317.7,181.8z"/>
			<path class="st8" d="M132.7,213.2c0.4,0,0.8,0,1.2,0c18,13.6,38.5,23.7,68.9,18.2c8.6-1.6,16-5.5,26.8-4.5
				c14.2,1.3,24.4,9.8,35.5,17.3c13.1,8.9,36.9,20.6,59.4,13.2c10.2-3.4,19.4-10,29.7-14c10.4-4.1,21.6-8.5,35.1-6.6
				c-2.5,2.9-6.7,3.5-9.9,4.5c-10.9,3.7-20.2,8.2-30.1,13.2c-13,6.6-25.4,14.8-42.5,14.9c-24.3,0.1-40.6-13.1-55.7-23.5
				c-5.3-3.7-10.8-8.2-16.9-9.5c-16.7-3.5-30,5-45.8,5c-24.9,0-43.2-11-55.3-26.8C132.7,214.4,132.8,213.7,132.7,213.2z"/>
			<path class="st8" d="M162.4,247.5c16.7,7.3,38.8,2.7,60.7,4.1c15.9,1.1,21.3,11.6,33.4,16.9c14.7,6.5,32.4,7.1,52.8,9.1
				c-3.2,3.5-11,2.1-17.3,2.1c-6.2,0-13.1,0.7-19,0c-7.8-1-16.1-4.5-22.7-7.8c-9.4-4.7-16.7-11.7-30.5-12.8
				c-8.8-0.7-15.4,1.5-24.4,0.8c-11.9-0.9-25.2-5-32.6-11.1C162.4,248.6,162.5,248,162.4,247.5z"/>
		</g>
	</g>
</g>
<g id="nb">
	<g>
		<g>
			<path class="st9" d="M83.2,53.8c23.4-12,49.5-18.8,77.1-18.7c32.8,0.1,63.4,9.7,89.8,26.5c26.5-16.6,57.1-26.2,89.9-26.1
				c27.6,0.1,53.7,6.9,77,19L416.9,86c-22.6-14.3-48.9-22.6-77-22.6c-23.7,0-46.1,5.7-66.1,16.1c7.2,6.4,13.9,13.5,20.1,21
				c14.3-5.9,29.8-9.2,45.9-9.1c28.9,0.1,55.5,10.5,77,28.1l-0.1,37.9c-18.8-23.3-46.3-38-76.9-38.1c-10.2,0-20.1,1.6-29.4,4.6
				c4.8,8,9.1,16.5,12.8,25.3c5.3-1.3,10.9-1.9,16.5-1.9c33.5,0.1,62,23.5,72.5,56.1l-28.2-0.1c-8.8-16.7-25.4-28-44.4-28.1
				c-2.5,0-4.9,0.2-7.3,0.6c2.4,8.9,4.2,18,5.4,27.4l-26-0.1c-12.1-79.4-75.3-140-151.6-140.1c-28.1-0.1-54.4,8.1-77.1,22.3
				L83.2,53.8z M87.3,202.7c10.6-32.6,39.2-55.9,72.7-55.8c33.5,0.1,62,23.5,72.5,56.1l-28.2-0.1c-8.8-16.7-25.4-28-44.4-28.1
				c-19,0-35.6,11.2-44.5,27.9L87.3,202.7z M83.1,118.8c21.5-17.5,48.2-27.9,77.1-27.8c62.1,0.1,113.8,48.3,125.6,112.1l-26.3-0.1
				c-11.3-48.3-51.4-84-99.3-84.1c-30.7-0.1-58.2,14.6-77.1,37.8L83.1,118.8z"/>
		</g>
		<g>
			<g>
				<path class="st10" d="M83.7,264L83,214.2l7.7,0.3l11.3,32.6l0.8-33.8l8,0.9l-1.1,50.5l-8.3-0.3l-10.4-29.7l1.2,29.6L83.7,264z"
					/>
				<path class="st10" d="M138.4,217.3c-0.7-0.9-1.5-1.6-2.4-2.1c-1-0.5-2.2-0.9-3.5-1.1c-1.1,0-2.4-0.1-3.8-0.1
					c-1.2,0-2.6-0.1-4.1-0.1c-1.5,0-3.2,0-4.9,0.1c-1.7,0-3.1,0.4-4,1.2c-0.9,0.7-1.6,1.5-2,2.4c-0.5,1-0.8,2.1-0.8,3.4l-0.1,34.6
					c-0.1,2.2,0.3,4,1.2,5.5c0.9,1.5,2.7,2.4,5.3,2.8c1.8,0,3.7,0,5.5,0.1c1.5,0,3.1,0.1,4.7,0.1c1.6,0,2.9,0,4,0
					c0.9,0,1.7-0.2,2.4-0.5c0.7-0.4,1.4-0.8,1.9-1.4c0.5-0.6,0.9-1.2,1.2-1.9c0.3-0.7,0.4-1.4,0.4-2.2c0.1-5.7,0.1-11.1,0.2-16
					c0-2.1,0-4.2,0-6.3c0-2.1,0.1-4.2,0.1-6.1c0-1.9,0-3.6,0-5.1c0-1.5,0-2.6,0-3.4C139.5,219.5,139.1,218.2,138.4,217.3z
					 M133.9,226.4l-0.8,27.2c-0.1,1-0.2,1.9-0.5,2.7c-0.3,0.7-0.7,1.3-1.2,1.8c-0.5,0.6-1.3,0.9-2.3,0.9c-1,0-1.9,0-2.8,0
					c-0.9,0-1.7-0.1-2.3-0.1c-0.8,0-1.5-0.1-2.2-0.2c-0.7-0.2-1.4-0.5-2-0.9c-0.5-0.4-0.9-0.9-1.3-1.7c-0.4-0.7-0.6-1.7-0.5-3
					c0-0.6,0-1.5,0.1-2.7c0-1.2,0.1-2.5,0.1-4c0.1-1.5,0.1-3.1,0.2-4.8c0.1-1.7,0.1-3.3,0.2-5c0.1-3.9,0.3-8.1,0.5-12.6
					c0-0.6,0.1-1.2,0.3-1.7c0.2-0.6,0.4-1.1,0.7-1.5c0.3-0.4,0.7-0.8,1.1-1.1c0.4-0.3,0.9-0.4,1.4-0.4c0.6,0,1.4,0,2.3,0
					c0.9,0,1.8,0.1,2.6,0.1c1,0.1,2,0.1,3.1,0.1c1.5,0.3,2.4,1.1,2.9,2.3C133.9,223.3,134.1,224.7,133.9,226.4z"/>
				<path class="st10" d="M167,221.1c0-0.3,0-0.8,0-1.5c0-0.7,0-1.4,0-2.1c0-0.8,0-1.5,0-2.2c0-0.7,0.1-1.2,0.1-1.5l28.5,0.4
					c0.1,0.7,0.1,1.3,0.2,1.9c0.1,0.5,0.1,1.1,0.2,1.7c0.1,0.6,0.1,1.1,0.1,1.5v0.9h-12c0,7.5,0.2,14.8,0.5,22.2
					c0.3,7.3,0.5,14.5,0.5,21.6h-8v-42.9H167z"/>
				<path class="st10" d="M198.6,264.1c0.1,0,0.1-0.8,0-2.2c0-1.4-0.1-3.3-0.2-5.6c-0.1-2.3-0.2-5-0.3-7.9c-0.1-3-0.2-6-0.3-9.1
					c-0.1-3.1-0.2-6.1-0.3-9c-0.1-3-0.2-5.6-0.3-7.9c-0.1-2.3-0.1-4.2-0.1-5.6c0-1.4,0-2.1,0.1-2.1c0.1,0,0.5,0,1.2,0
					c0.7,0,1.4,0,2.2,0c0.9,0,1.9,0.1,3,0.1l1.5,24.1l8.6,0.4l2.4-25.6h5.9l-0.2,49.5l-6.8,0.1l-1.7-18.2l-7.7-0.4l-0.5,19
					c-1.4,0.1-2.5,0.3-3.5,0.4c-0.9,0.1-1.7,0.2-2.4,0.2C198.8,264.2,198.5,264.2,198.6,264.1z"/>
				<path class="st10" d="M224.7,214.1c4.1-0.2,8.3-0.2,12.8-0.1c4.5,0.1,8.7,0.1,12.8,0.1v5.3h-18.4c-0.1,1.2-0.1,2.9,0,5.1
					c0.1,2.2,0.2,4.4,0.3,6.7c0.1,2.3,0.2,4.3,0.4,6.1c0.2,1.8,0.3,3,0.3,3.5h15.3v5.3l-15.3,1.8v0.9c0,1.4,0.1,3,0.4,4.9
					c0.2,1.9,0.4,3.5,0.4,4.9h16.6v5.3h-24.5L224.7,214.1z"/>
				<path class="st10" d="M278.6,264l-0.7-49.8l7.7,0.3l11.3,32.6l0.8-33.8l8,0.9l-1.1,50.5l-8.3-0.3l-10.4-29.7l1.2,29.6L278.6,264
					z"/>
				<path class="st10" d="M274.5,258.6c-0.7-1.5-1.5-3-2.2-4.6c-0.7-1.5-1.5-3-2.2-4.5c-0.7-1.5-1.4-2.8-2-4.1c1-0.5,2-1,2.9-1.7
					c0.9-0.6,1.7-1.4,2.4-2.1c0.7-0.8,1.3-1.6,1.7-2.6c0.4-0.9,0.7-1.9,0.7-3v-15.2c0-1-0.3-2-1-2.9c-0.7-0.9-1.5-1.6-2.4-2.1
					c-1-0.6-2-1-3.1-1.3c-1.1-0.3-2.2-0.5-3.1-0.5c-0.9,0-2.1,0-3.4,0c-1.3,0-2.7,0-4,0c-1.4,0-2.7,0-3.9,0.1
					c-1.3,0-2.3,0.1-3.1,0.1c-0.1,1.6-0.1,3.7-0.1,6.3c0.1,2.6,0.1,5.5,0.3,8.6c0.1,3.1,0.3,6.4,0.5,9.7c0.2,3.4,0.4,6.6,0.5,9.8
					c0.2,3.1,0.3,6,0.4,8.7c0.1,2.7,0.2,4.8,0.2,6.5h6.8v-17.7l10,18.7c0.3-0.1,0.7-0.2,1.3-0.4c0.6-0.2,1.2-0.3,1.9-0.5
					c0.7-0.2,1.3-0.3,1.8-0.5c0.5-0.2,0.9-0.4,1.1-0.6C275.9,261.6,275.2,260.1,274.5,258.6z M259.6,240.6l-1.1-21.6l5.7,0.2
					c0,0,5.6,0.2,5.7,4.1l-0.7,12.1C269.3,235.2,268.9,242.8,259.6,240.6z"/>
				<path class="st10" d="M164.3,258.6c-0.7-1.5-1.5-3-2.2-4.6c-0.7-1.5-1.5-3-2.2-4.5c-0.7-1.5-1.4-2.8-2-4.1c1-0.5,2-1,2.9-1.7
					c0.9-0.6,1.7-1.4,2.4-2.1c0.7-0.8,1.3-1.6,1.7-2.6c0.4-0.9,0.7-1.9,0.7-3v-15.2c0-1-0.3-2-1-2.9c-0.7-0.9-1.5-1.6-2.4-2.1
					c-1-0.6-2-1-3.1-1.3c-1.1-0.3-2.2-0.5-3.1-0.5c-0.9,0-2.1,0-3.4,0c-1.3,0-2.7,0-4,0c-1.4,0-2.7,0-3.9,0.1
					c-1.3,0-2.3,0.1-3.1,0.1c-0.1,1.6-0.1,3.7-0.1,6.3c0.1,2.6,0.2,5.5,0.3,8.6c0.1,3.1,0.3,6.4,0.5,9.7c0.2,3.4,0.4,6.6,0.5,9.8
					c0.2,3.1,0.3,6,0.4,8.7c0.1,2.7,0.2,4.8,0.2,6.5h6.8v-17.7l10,18.7c0.3-0.1,0.7-0.2,1.3-0.4c0.6-0.2,1.2-0.3,1.9-0.5
					c0.7-0.2,1.3-0.3,1.8-0.5c0.5-0.2,0.9-0.4,1.1-0.6C165.7,261.6,165,260.1,164.3,258.6z M149.3,240.6l-1.1-21.6l5.7,0.2
					c0,0,5.6,0.2,5.7,4.1l-0.7,12.1C158.9,235.2,158.6,242.8,149.3,240.6z"/>
			</g>
			<g>
				<path class="st10" d="M368.2,263.6l-0.9-6.7l11.9,0.7c1.1-0.1,2.1-0.3,3-0.6c0.7-0.2,1.4-0.6,2.1-1.2c0.6-0.5,1-1.3,1.1-2.2
					c0.1-0.9,0.1-1.8,0.1-2.5c0-0.8,0-1.4,0-1.9c-0.1-0.6-0.1-1.2-0.1-1.7c-0.1-0.7-0.2-1.3-0.4-1.9c-0.2-0.5-0.6-0.9-1-1.3
					c-0.4-0.4-1.1-0.6-1.9-0.6c-0.8,0-1.7,0-2.5,0c-0.8,0-1.6-0.1-2.2-0.2c-0.8,0-1.5-0.1-2.2-0.2c-1.3-0.3-2.4-0.8-3.4-1.5
					c-0.8-0.6-1.6-1.5-2.3-2.6c-0.7-1.1-1-2.6-0.9-4.4c0-1.8,0.1-3.6,0.1-5.2c0-1.6,0-3.1,0-4.4c-0.1-1.5-0.1-2.9-0.2-4.1
					c0-1.2,0.1-2.3,0.5-3.3c0.3-0.8,0.9-1.5,1.7-2.2c0.8-0.7,2-1.1,3.7-1.1c1.6,0,3.4-0.1,5.3-0.1c1.9,0,3.6-0.1,5.2-0.2
					c1.8-0.1,3.7-0.2,5.5-0.3l0.1,8.2l-10.9-0.4c-0.8,0.1-1.6,0.3-2.2,0.6c-0.5,0.3-1,0.7-1.5,1.3c-0.4,0.6-0.7,1.3-0.7,2.3
					c0,1-0.1,1.9-0.1,2.9c0,0.9,0,1.8-0.1,2.5c-0.1,0.8-0.1,1.6-0.1,2.4c-0.1,0.6,0,1.2,0.2,1.7c0.2,0.4,0.5,0.8,1,1.2
					c0.4,0.4,1.1,0.6,2,0.7c1,0.1,2.1,0.2,3,0.2c1,0,1.8,0,2.5,0c0.8,0,1.6,0,2.4-0.1c0.9,0,1.8,0.2,2.6,0.6c0.7,0.4,1.3,1,1.9,2
					c0.5,0.9,0.8,2.4,0.8,4.3c0,1.9,0,3.7,0,5.4c0,1.7-0.1,3.1-0.1,4.4c-0.1,1.5-0.1,2.9-0.1,4.1c-0.1,0.9-0.4,1.8-1,2.5
					c-0.4,0.7-1.1,1.2-2,1.8c-0.9,0.5-2.1,0.8-3.7,0.8L368.2,263.6z"/>
				<path class="st10" d="M393.7,263.6l-0.9-6.7l11.9,0.7c1.1-0.1,2.1-0.3,3-0.6c0.7-0.2,1.4-0.6,2.1-1.2c0.6-0.5,1-1.3,1.1-2.2
					c0.1-0.9,0.1-1.8,0.1-2.5c0-0.8,0-1.4,0-1.9c-0.1-0.6-0.1-1.2-0.1-1.7c-0.1-0.7-0.2-1.3-0.4-1.9c-0.2-0.5-0.6-0.9-1-1.3
					c-0.4-0.4-1.1-0.6-1.9-0.6c-0.8,0-1.7,0-2.5,0c-0.8,0-1.6-0.1-2.2-0.2c-0.8,0-1.5-0.1-2.2-0.2c-1.3-0.3-2.4-0.8-3.4-1.5
					c-0.8-0.6-1.6-1.5-2.3-2.6c-0.7-1.1-1-2.6-0.9-4.4c0-1.8,0.1-3.6,0.1-5.2c0-1.6,0-3.1,0-4.4c0-1.5-0.1-2.9-0.2-4.1
					c-0.1-1.2,0.1-2.3,0.5-3.3c0.3-0.8,0.9-1.5,1.7-2.2c0.8-0.7,2-1.1,3.7-1.1c1.6,0,3.4-0.1,5.3-0.1c1.9,0,3.6-0.1,5.2-0.2
					c1.8-0.1,3.7-0.2,5.5-0.3l0.1,8.2l-10.9-0.4c-0.8,0.1-1.6,0.3-2.2,0.6c-0.5,0.3-1,0.7-1.5,1.3c-0.4,0.6-0.7,1.3-0.7,2.3
					c-0.1,1-0.1,1.9-0.1,2.9c0,0.9,0,1.8-0.1,2.5c-0.1,0.8-0.1,1.6-0.1,2.4c-0.1,0.6,0,1.2,0.2,1.7c0.2,0.4,0.5,0.8,1,1.2
					c0.4,0.4,1.1,0.6,2,0.7c1,0.1,2.1,0.2,3,0.2c1,0,1.8,0,2.5,0c0.8,0,1.6,0,2.4-0.1c0.9,0,1.8,0.2,2.6,0.6c0.7,0.4,1.3,1,1.9,2
					c0.5,0.9,0.8,2.4,0.8,4.3c0,1.9,0,3.7,0,5.4c0,1.7-0.1,3.1-0.1,4.4c-0.1,1.5-0.1,2.9-0.1,4.1c-0.1,0.9-0.4,1.8-1,2.5
					c-0.4,0.7-1.1,1.2-2,1.8c-0.9,0.5-2.1,0.8-3.7,0.8L393.7,263.6z"/>
				<path class="st10" d="M360.3,214.8c-0.8,0-1.8-0.1-3-0.1c-1.2,0-2.4-0.1-3.7-0.1c-1.3,0-2.6,0-3.9,0c-1.3,0-2.4,0-3.4,0
					l-4.6,49.1h6.4c0.5-3.5,1-6.8,1.2-10.1c0.3-3.3,0.8-6.2,1.5-8.9l6.4,0.9c0.3,0.9,0.6,2.2,0.8,3.8c0.2,1.6,0.5,3.3,0.7,5
					c0.2,1.7,0.4,3.4,0.7,5.1c0.2,1.7,0.4,3.1,0.6,4.2h6.4L360.3,214.8z M351.5,237.8l2.5-18.2l2.1,19.8L351.5,237.8z"/>
				<path class="st10" d="M334.2,238.9c4.8-1.5,4.9-5.5,4.9-5.5c0.1-1.2,0.2-2.4,0.2-3.8c0-1.2,0.1-2.5,0-4c0-1.5-0.1-3.1-0.3-4.9
					c-0.2-1.7-0.7-3-1.6-3.9c-0.9-0.9-1.8-1.5-2.8-1.9c-1.2-0.5-2.5-0.7-4-0.6c-2.2-0.1-4.6-0.1-7,0c-2.4,0.1-4.8,0.3-7.1,0.7
					c-0.3,7.7-0.5,15.5-0.4,23.5c0.1,8,0.5,16.6,1.2,25.6c2.3-0.1,4.5-0.2,6.6-0.3c1.8-0.1,3.7-0.2,5.6-0.2c1.9-0.1,3.5-0.2,4.8-0.2
					c1.2,0,2.2-0.2,2.9-0.6c0.7-0.3,1.2-0.7,1.6-1.1c0.4-0.4,0.6-0.9,0.7-1.4c0.1-1.9,0.3-3.7,0.5-5.5c0.1-1.5,0.3-3.2,0.4-4.8
					c0.1-1.7,0.2-3.1,0.3-4.4c0.1-1.2-0.2-2.2-0.9-2.9c-0.7-0.7-1.4-1.3-2.3-1.7L334.2,238.9z M329,219.1c0,0,4.4-1.2,4.4,3.6
					l-0.2,7.3c0,0,0.3,6.6-5.6,5.4l-4.8-0.3l-1.2-15.5L329,219.1z M334.9,245.8l0,8.4c-0.5,4-2.3,4.4-2.3,4.4l-8.9,0.7l-0.8-19.1
					l7.9,2C335.4,243.7,334.9,245.8,334.9,245.8z"/>
			</g>
		</g>
	</g>
</g>
<g id="larkin">
	<style type="text/css">
		.st0{fill:#A6A8AB;}
		.st1{fill:#929497;}
		.st2{fill:#D0D2D3;}
		.st3{fill:#BBBDBF;}
		.st4{fill:#808184;}
	</style>
	<path class="st0" d="M134.3,375h35.2c0-55.2,0-166.1,0-196.8c0-28.7,8-44.7,15.8-55.6c-3.5-4.8-6.9-8.5-9.7-11.9
		c-5.2-5.6-5.5-17.2-5.5-17.2V13.6c0,0,4.1-6.9-18.2-7.6c-22.4,0.7-18.2,7.6-18.2,7.6v79.9c0,0-0.3,11.6-5.5,17.2
		c-2.7,3.4-6.2,7.1-9.7,11.9c7.9,10.8,15.8,26.9,15.8,55.6C134.3,208.8,134.3,319.7,134.3,375z"/>
	<path class="st1" d="M102.7,375h31.6c0-55.2,0-166.1,0-196.8c0-28.7-8-44.7-15.8-55.6c-7.9,10.8-15.8,26.9-15.8,55.6
		C102.7,208.8,102.7,319.7,102.7,375z"/>
	<path class="st2" d="M201.1,375H268c0-55.2,0-166.1,0-196.8c0-41.3-16.5-56.5-25.5-67.5c-5.2-5.6-5.5-17.2-5.5-17.2V34.3
		c0,0,4.1-6.9-18.2-7.6c-22.4,0.7-18.2,7.6-18.2,7.6v59.2c0,0-0.3,11.6-5.5,17.2c-2.7,3.4-6.2,7.1-9.7,11.9
		c7.9,10.8,15.8,26.9,15.8,55.6C201.1,208.8,201.1,319.7,201.1,375z"/>
	<path class="st3" d="M169.5,375h31.6c0-55.2,0-166.1,0-196.8c0-28.7-8-44.7-15.8-55.6c-7.9,10.8-15.8,26.9-15.8,55.6
		C169.5,208.8,169.5,319.7,169.5,375z"/>
	<path class="st4" d="M201.1,375h-31.6h-35.2h-31.6c0-55.2,0-166.1,0-196.8c0-28.7,8-44.7,15.8-55.6c-3.5-4.8-6.9-8.5-9.7-11.9
		c-5.2-5.6-5.5-17.2-5.5-17.2V25.6c0,0,4.1-6.9-18.2-7.6c-22.4,0.7-18.2,7.6-18.2,7.6v67.9c0,0-0.3,11.6-5.5,17.2
		c-9,11-25.5,26.2-25.5,67.5c0,30.7,0,141.6,0,196.8c0,8.5,0,15.7,0,21.1h66.9h31.6h35.2h31.6H268c0-5.4,0-12.6,0-21.1H201.1z"/>
</g>
</svg>
