<svg version="1.1" id="Layer_1" xmlns="http://www.w3.org/2000/svg" xmlns:xlink="http://www.w3.org/1999/xlink" x="0px" y="0px"
	 viewBox="0 0 150 105" style="enable-background:new 0 0 150 105;" xml:space="preserve">
<style type="text/css">
	.st0{fill:#CCCCCC;}
</style>
<path class="st0" d="M131.7,11.4l13.6-9.8c-2.4-0.6-4.8-0.9-7.2-0.8H26.4C12.3,0.8,0.9,12.2,0.9,26.3v42.8C1,80,7.9,89.6,18.1,93.2
	l-13.5,9.9c0.1,0,0.3,0,0.4,0.1c2.4,0.7,4.8,1.1,7.2,1.1h111.4c14.1,0,25.5-11.5,25.5-25.5V35.9C149.2,24.8,142.2,15,131.7,11.4z
	 M124.1,74.1c0,2.9-2.3,5.2-5.2,5.2c0,0,0,0-0.1,0H38.7l13.1-9.6H31.3v-0.1c-3,0-5.4-2.4-5.4-5.4V30.9c0-3.1,2.5-5.6,5.6-5.6h79.8
	L98,34.9h21c2.8,0,5.1,2.3,5.1,5.1V74.1z"/>
</svg>
