<?xml version="1.0" encoding="utf-8"?>
<!-- Generator: Adobe Illustrator 21.1.0, SVG Export Plug-In . SVG Version: 6.00 Build 0)  -->
<svg class="letter-svg letter-svg-3" version="1.1" id="Layer_1" xmlns="http://www.w3.org/2000/svg" xmlns:xlink="http://www.w3.org/1999/xlink" x="0px" y="0px"
	 viewBox="0 0 500 350" style="enable-background:new 0 0 500 350;" xml:space="preserve">
<style type="text/css">
	.st0{fill:none;stroke:#000000;stroke-miterlimit:10;}
</style>
<path class="st0" d="M435.5,41L480,8.8C472.5,6.6,464.6,6,456.5,6H91.8C45.8,6,8.5,43.3,8.5,89.3V229c0,36.5,24,67.3,56.7,78.7
	l-44.4,32.4c0.4,0.1,1,0.1,1.4,0.2c7.5,2.2,15.4,3.6,23.5,3.6h363.6c46,0,83.4-37.3,83.4-83.4V120.8C492.7,83.8,468.8,52.1,435.5,41
	z M410.9,245.4c0,9.3-7.5,16.8-16.8,16.8H131.5l43.1-31.4h-66.7c-9.7,0-17.7-8-17.7-17.7V104.4c0-10,8.2-18.2,18.2-18.2h260.7
	l-43.3,31.4h1.7h66.7c9.2,0,16.7,7.5,16.7,16.7V245.4z"/>
</svg>